<svg width="24" height="24" viewBox="0 0 24 24" fill="none" xmlns="http://www.w3.org/2000/svg">
<mask id="mask0_3852_99259" style="mask-type:alpha" maskUnits="userSpaceOnUse" x="0" y="0" width="24" height="24">
<rect width="24" height="24" fill="#D9D9D9"/>
</mask>
<g mask="url(#mask0_3852_99259)">
<path d="M11.9981 19.5865C11.7404 19.5865 11.4911 19.532 11.2501 19.423C11.0091 19.314 10.7981 19.1525 10.6173 18.9385L3.04431 9.86525C2.90715 9.70125 2.80423 9.52217 2.73556 9.328C2.66706 9.13367 2.63281 8.9295 2.63281 8.7155C2.63281 8.57817 2.6469 8.44 2.67506 8.301C2.70323 8.16183 2.75256 8.02883 2.82306 7.902L4.65006 4.24425C4.81406 3.94292 5.03748 3.70192 5.32031 3.52125C5.60298 3.34042 5.91673 3.25 6.26156 3.25H17.7346C18.0794 3.25 18.3931 3.34042 18.6758 3.52125C18.9586 3.70192 19.1821 3.94292 19.3461 4.24425L21.1731 7.902C21.2436 8.02883 21.2929 8.16183 21.3211 8.301C21.3492 8.44 21.3633 8.57817 21.3633 8.7155C21.3633 8.9295 21.3291 9.13367 21.2606 9.328C21.1919 9.52217 21.089 9.70125 20.9518 9.86525L13.3788 18.9385C13.198 19.1525 12.9871 19.314 12.7461 19.423C12.5051 19.532 12.2557 19.5865 11.9981 19.5865ZM9.21906 8.25H14.7771L13.0268 4.75H10.9693L9.21906 8.25ZM11.2481 17.3672V9.75H4.91906L11.2481 17.3672ZM12.7481 17.3672L19.0771 9.75H12.7481V17.3672ZM16.4443 8.25H19.6521L17.9886 4.923C17.9629 4.87183 17.9244 4.83017 17.8731 4.798C17.8217 4.766 17.7672 4.75 17.7096 4.75H14.6941L16.4443 8.25ZM4.34406 8.25H7.55181L9.30206 4.75H6.28656C6.2289 4.75 6.1744 4.766 6.12306 4.798C6.07173 4.83017 6.03323 4.87183 6.00756 4.923L4.34406 8.25Z" fill="#474747"/>
</g>
</svg>
